<svg xmlns="http://www.w3.org/2000/svg" viewBox="0 0 900 650" role="img" aria-labelledby="title desc">
  <title id="title">Blue education campus illustration</title>
  <desc id="desc">A blue isometric education campus with buildings, stairs, graduation icons, plants, and a curved path.</desc>
  <defs>
    <linearGradient id="sky" x1="0" x2="1" y1="0" y2="1">
      <stop offset="0" stop-color="#eefbff"/>
      <stop offset="1" stop-color="#d8f3ff"/>
    </linearGradient>
    <linearGradient id="building" x1="0" x2="0" y1="0" y2="1">
      <stop offset="0" stop-color="#45ddf1"/>
      <stop offset="1" stop-color="#1267d8"/>
    </linearGradient>
    <linearGradient id="deep" x1="0" x2="1" y1="0" y2="1">
      <stop offset="0" stop-color="#22c8f0"/>
      <stop offset="1" stop-color="#075bc8"/>
    </linearGradient>
    <linearGradient id="path" x1="0" x2="1" y1="0" y2="0">
      <stop offset="0" stop-color="#23cde5"/>
      <stop offset="1" stop-color="#0d72dd"/>
    </linearGradient>
    <filter id="shadow" x="-20%" y="-20%" width="140%" height="150%">
      <feDropShadow dx="0" dy="18" stdDeviation="16" flood-color="#1885d9" flood-opacity=".24"/>
    </filter>
  </defs>

  <rect width="900" height="650" fill="url(#sky)"/>
  <g opacity=".45">
    <path d="M82 298h78v190H82z" fill="#b7eafd"/>
    <path d="M720 98h84v250h-84z" fill="#bfefff"/>
    <path d="M250 110h64v280h-64z" fill="#c9f2ff"/>
    <path d="M600 206h46v190h-46z" fill="#c9f2ff"/>
    <path d="M130 222h42v78h-42z" fill="#d8f7ff"/>
  </g>

  <g filter="url(#shadow)">
    <path d="M350 385c112 18 118 80 245 72 72-4 146-40 205-91v86c-88 81-198 120-321 99-104-18-149-66-246-55-68 8-118 37-155 70v-88c63-65 153-112 272-93z" fill="url(#path)"/>
    <ellipse cx="506" cy="470" rx="155" ry="53" fill="#1594df" opacity=".25"/>

    <g transform="translate(110 270)">
      <path d="M0 74 116 18l118 58-118 58z" fill="#5ae9f3"/>
      <path d="M0 74v204l116 62V134z" fill="#1082db"/>
      <path d="M116 134v206l118-64V76z" fill="#075fcb"/>
      <path d="M42 96 116 60l74 37-74 36z" fill="#d9fbff"/>
      <path d="M79 72h72v32H79z" fill="#18b7ef"/>
      <path d="m61 33 54-27 56 28-55 28z" fill="#13246e"/>
      <path d="m116 62 55-28v14l-55 28-55-29V33z" fill="#071b57"/>
      <g fill="#77dff4" opacity=".55">
        <rect x="36" y="150" width="18" height="12" rx="2"/>
        <rect x="70" y="168" width="18" height="12" rx="2"/>
        <rect x="104" y="186" width="18" height="12" rx="2"/>
        <rect x="138" y="204" width="18" height="12" rx="2"/>
        <rect x="172" y="222" width="18" height="12" rx="2"/>
        <rect x="36" y="206" width="18" height="12" rx="2"/>
        <rect x="70" y="224" width="18" height="12" rx="2"/>
        <rect x="104" y="242" width="18" height="12" rx="2"/>
        <rect x="138" y="260" width="18" height="12" rx="2"/>
        <rect x="172" y="278" width="18" height="12" rx="2"/>
      </g>
    </g>

    <g transform="translate(318 95)">
      <path d="M0 88 100 32l100 56-100 55z" fill="#66e8f4"/>
      <path d="M0 88v215l100 58V143z" fill="url(#building)"/>
      <path d="M100 143v218l100-57V88z" fill="#0872d6"/>
      <path d="m49 45 51-28 52 29-52 29z" fill="#e5fbff"/>
      <path d="m70 43 30-16 31 17-31 17z" fill="#1166d2"/>
      <path d="M75 21h52v17H75z" fill="#2fd2ee"/>
      <g fill="#b7f5ff" opacity=".56">
        <rect x="39" y="136" width="21" height="11" rx="2"/>
        <rect x="76" y="157" width="21" height="11" rx="2"/>
        <rect x="113" y="178" width="21" height="11" rx="2"/>
        <rect x="150" y="199" width="21" height="11" rx="2"/>
        <rect x="39" y="202" width="21" height="11" rx="2"/>
        <rect x="76" y="223" width="21" height="11" rx="2"/>
        <rect x="113" y="244" width="21" height="11" rx="2"/>
      </g>
    </g>

    <g transform="translate(520 145)">
      <path d="M20 66 130 4l114 61-111 65z" fill="#6ae7f6"/>
      <path d="M20 66v135l113 64V130z" fill="#14a7e7"/>
      <path d="M133 130v135l111-63V65z" fill="#0872d6"/>
      <rect x="75" y="80" width="105" height="58" rx="5" fill="#167bd7"/>
      <rect x="86" y="91" width="82" height="34" rx="4" fill="#e8fbff"/>
      <path d="M85 51h63v19H85z" fill="#dbfbff"/>
      <path d="M93 31h58v14H93z" fill="#0aaee9"/>
      <path d="M109 14h58v14h-58z" fill="#72e7f6"/>
      <path d="M29 142h-60l-17 12h60zM45 158h-60l-17 12h60zM61 174H1l-17 12h60z" fill="#bdf6ff"/>
      <text x="95" y="113" fill="#2099e2" font-family="Arial, sans-serif" font-size="18" font-weight="700">AUTH</text>
      <g fill="#fff">
        <path d="M54 99v29h8v-20h11v-9z" opacity=".7"/>
        <path d="M201 105v29h8v-20h11v-9z" opacity=".7"/>
      </g>
    </g>

    <g transform="translate(655 160)">
      <path d="M35 60c0-36 46-60 94-60s94 24 94 60v236c0 36-46 62-94 62s-94-26-94-62z" fill="url(#deep)"/>
      <ellipse cx="129" cy="61" rx="94" ry="60" fill="#60dff2"/>
      <ellipse cx="129" cy="61" rx="62" ry="33" fill="#dffbff"/>
      <path d="m95 58 35-19 36 19-36 20z" fill="#1d2e88"/>
      <path d="m130 79 36-21v12l-36 20-35-20V58z" fill="#091c58"/>
      <g fill="#bdf5ff" opacity=".62">
        <rect x="82" y="160" width="95" height="10" rx="5"/>
        <rect x="82" y="183" width="70" height="10" rx="5"/>
        <rect x="82" y="206" width="110" height="10" rx="5"/>
      </g>
    </g>

    <g transform="translate(495 410)">
      <path d="M0 38 72 0l75 39-73 39z" fill="#80edf4"/>
      <path d="M25 24h59v70H25z" fill="#fff"/>
      <path d="M41 41h55v70H41z" fill="#d9f9ff"/>
      <path d="M50 52h35M50 65h44M50 78h30" stroke="#35aee7" stroke-width="6" stroke-linecap="round"/>
    </g>

    <g transform="translate(770 380)">
      <path d="M40 96C10 74-2 41 18 15c35 15 48 43 22 81z" fill="#5ddba2"/>
      <path d="M56 105c-5-50 15-82 62-98 16 43-11 82-62 98z" fill="#31c78d"/>
      <path d="M48 126c10-48 43-75 96-75-2 48-42 77-96 75z" fill="#82e4ad"/>
      <rect x="35" y="102" width="74" height="58" rx="8" fill="#53dfe8"/>
    </g>

    <g transform="translate(82 525)">
      <path d="M0 32 43 0l42 33H55v90H31V33z" fill="#6ef0f4"/>
      <path d="M103 76c12 0 22 11 22 25v62H82v-62c0-14 9-25 21-25z" fill="#fff"/>
      <circle cx="103" cy="65" r="12" fill="#17276f"/>
      <rect x="119" y="105" width="36" height="9" rx="4" fill="#12a7e7"/>
    </g>

    <g fill="#15307e">
      <circle cx="530" cy="264" r="8"/>
      <rect x="526" y="274" width="8" height="33" rx="4"/>
      <circle cx="585" cy="246" r="8"/>
      <rect x="581" y="256" width="8" height="33" rx="4"/>
      <circle cx="641" cy="294" r="8"/>
      <rect x="637" y="304" width="8" height="33" rx="4"/>
    </g>
  </g>

  <g transform="translate(815 590)" fill="#6ccbed">
    <circle cx="0" cy="0" r="5"/>
    <circle cx="20" cy="0" r="4" opacity=".5"/>
    <circle cx="38" cy="0" r="4" opacity=".35"/>
  </g>
</svg>
